<svg width="21" height="20" viewBox="0 0 21 20" fill="none" xmlns="http://www.w3.org/2000/svg">
<g id="dots-vertical">
<g id="Icon">
<path d="M11.3333 10C11.3333 9.53976 10.9602 9.16667 10.5 9.16667C10.0398 9.16667 9.66668 9.53976 9.66668 10C9.66668 10.4602 10.0398 10.8333 10.5 10.8333C10.9602 10.8333 11.3333 10.4602 11.3333 10Z" stroke="#98A2B3" stroke-width="1.66667" stroke-linecap="round" stroke-linejoin="round"/>
<path d="M5.50001 10C5.50001 9.53976 5.12691 9.16667 4.66668 9.16667C4.20644 9.16667 3.83334 9.53976 3.83334 10C3.83334 10.4602 4.20644 10.8333 4.66668 10.8333C5.12691 10.8333 5.50001 10.4602 5.50001 10Z" stroke="#98A2B3" stroke-width="1.66667" stroke-linecap="round" stroke-linejoin="round"/>
<path d="M17.1667 10C17.1667 9.53976 16.7936 9.16667 16.3333 9.16667C15.8731 9.16667 15.5 9.53976 15.5 10C15.5 10.4602 15.8731 10.8333 16.3333 10.8333C16.7936 10.8333 17.1667 10.4602 17.1667 10Z" stroke="#98A2B3" stroke-width="1.66667" stroke-linecap="round" stroke-linejoin="round"/>
</g>
</g>
</svg>
