<svg width="29" height="28" viewBox="0 0 29 28" fill="none" xmlns="http://www.w3.org/2000/svg">
<g id="list">
<path id="Icon" d="M25 14L11 14M25 6.99998L11 6.99998M25 21L11 21M6.33333 14C6.33333 14.6443 5.811 15.1666 5.16667 15.1666C4.52233 15.1666 4 14.6443 4 14C4 13.3556 4.52233 12.8333 5.16667 12.8333C5.811 12.8333 6.33333 13.3556 6.33333 14ZM6.33333 6.99998C6.33333 7.64431 5.811 8.16665 5.16667 8.16665C4.52233 8.16665 4 7.64431 4 6.99998C4 6.35565 4.52233 5.83331 5.16667 5.83331C5.811 5.83331 6.33333 6.35565 6.33333 6.99998ZM6.33333 21C6.33333 21.6443 5.811 22.1666 5.16667 22.1666C4.52233 22.1666 4 21.6443 4 21C4 20.3556 4.52233 19.8333 5.16667 19.8333C5.811 19.8333 6.33333 20.3556 6.33333 21Z" stroke="#005F6A" stroke-width="2.5" stroke-linecap="round" stroke-linejoin="round"/>
</g>
</svg>
