<svg width="29" height="28" viewBox="0 0 29 28" fill="none" xmlns="http://www.w3.org/2000/svg">
<g id="user-02">
<g id="Icon">
<path d="M14.5 17.5C10.8016 17.5 7.5126 19.2857 5.41866 22.057C4.96799 22.6534 4.74265 22.9516 4.75002 23.3547C4.75572 23.6661 4.95125 24.0589 5.19626 24.2511C5.51338 24.5 5.95285 24.5 6.83177 24.5H22.1682C23.0472 24.5 23.4866 24.5 23.8037 24.2511C24.0487 24.0589 24.2443 23.6661 24.25 23.3547C24.2573 22.9516 24.032 22.6534 23.5813 22.057C21.4874 19.2857 18.1984 17.5 14.5 17.5Z" stroke="#667085" stroke-linecap="round" stroke-linejoin="round"/>
<path d="M14.5 14C17.3995 14 19.75 11.6495 19.75 8.75C19.75 5.85051 17.3995 3.5 14.5 3.5C11.6005 3.5 9.25 5.85051 9.25 8.75C9.25 11.6495 11.6005 14 14.5 14Z" stroke="#667085" stroke-linecap="round" stroke-linejoin="round"/>
</g>
</g>
</svg>
